<svg width="661.896875px" height="121.39999999999999px" xmlns="http://www.w3.org/2000/svg" viewBox="-80.94843750000001 14.300000000000004 661.896875 121.39999999999999" style="background: transparent;" preserveAspectRatio="xMidYMid"><defs><filter id="editing-offset"><feFlood flood-color="#f00" flood-opacity="0.5" result="c1"></feFlood><feFlood flood-color="#0f0" flood-opacity="0.5" result="c2"></feFlood><feFlood flood-color="#0000ff" flood-opacity="0.5" result="c3"></feFlood><feComposite operator="in" in="c1" in2="SourceAlpha" result="text-c1"></feComposite><feComposite operator="in" in="c2" in2="SourceAlpha" result="text-c2"></feComposite><feComposite operator="in" in="c3" in2="SourceAlpha" result="text-c3"></feComposite><feOffset in="text-c1" dx="-10" dy="0" result="text1"></feOffset><feOffset in="text-c2" dx="10" dy="0" result="text2"></feOffset><feOffset in="text-c3" dx="0" dy="0" result="text3"></feOffset><feMerge><feMergeNode in="text1"></feMergeNode><feMergeNode in="text2"></feMergeNode><feMergeNode in="text3"></feMergeNode></feMerge></filter></defs><g filter="url(#editing-offset)"><g transform="translate(14.674976825714111, 104.47000122070312)"><path d="M3.87-1.92L3.87-1.92L3.87-1.92Q2.37-3.58 1.70-6.21L1.70-6.21L1.70-6.21Q1.02-8.83 1.02-13.12L1.02-13.12L1.02-13.12Q1.02-17.41 2.50-21.31L2.50-21.31L2.50-21.31Q3.97-25.22 6.66-28.03L6.66-28.03L6.66-28.03Q12.16-33.92 21.25-33.92L21.25-33.92L21.25-33.92Q24.51-33.92 26.88-32.83L26.88-32.83L37.82-33.92L33.09-8.96L33.09-8.96Q32.90-8.19 32.90-6.78L32.90-6.78L32.90-6.78Q32.90-5.38 33.76-4.48L33.76-4.48L33.76-4.48Q34.62-3.58 35.90-3.46L35.90-3.46L35.90-3.46Q35.26-1.28 32.93 0L32.93 0L32.93 0Q30.59 1.28 27.97 1.28L27.97 1.28L27.97 1.28Q25.34 1.28 23.58 0.29L23.58 0.29L23.58 0.29Q21.82-0.70 21.31-2.37L21.31-2.37L21.31-2.37Q20.29-0.77 18.11 0.26L18.11 0.26L18.11 0.26Q15.94 1.28 13.02 1.28L13.02 1.28L13.02 1.28Q10.11 1.28 7.74 0.51L7.74 0.51L7.74 0.51Q5.38-0.26 3.87-1.92ZM17.38-27.90L17.38-27.90L17.38-27.90Q16.64-26.75 16-24.80L16-24.80L16-24.80Q15.36-22.85 14.30-17.63L14.30-17.63L14.30-17.63Q13.25-12.42 13.25-8.70L13.25-8.70L13.25-8.70Q13.25-4.99 13.82-3.90L13.82-3.90L13.82-3.90Q14.40-2.82 15.42-2.82L15.42-2.82L15.42-2.82Q17.47-2.82 18.98-4.77L18.98-4.77L18.98-4.77Q20.48-6.72 21.06-10.18L21.06-10.18L24.45-28.93L24.45-28.93Q23.10-30.08 21.54-30.08L21.54-30.08L21.54-30.08Q19.97-30.08 19.04-29.57L19.04-29.57L19.04-29.57Q18.11-29.06 17.38-27.90ZM68.35 1.28L68.35 1.28L68.35 1.28Q60.61 1.28 60.61-4.74L60.61-4.74L60.61-4.74Q60.67-6.40 61.18-9.22L61.18-9.22L62.34-15.10L62.34-15.10Q64.06-23.42 64.06-25.28L64.06-25.28L64.06-25.28Q64.06-28.99 61.89-28.99L61.89-28.99L61.89-28.99Q58.24-28.99 56.32-19.46L56.32-19.46L52.54 0L39.68 1.28L46.34-32.70L56.83-33.92L55.81-27.65L55.81-27.65Q58.82-33.92 68.03-33.92L68.03-33.92L68.03-33.92Q72.51-33.92 74.40-32.03L74.40-32.03L74.40-32.03Q76.29-30.14 76.29-25.92L76.29-25.92L76.29-25.92Q76.29-21.95 74.24-12.67L74.24-12.67L74.24-12.67Q73.28-8.51 73.28-6.94L73.28-6.94L73.28-6.94Q73.28-5.38 74.14-4.48L74.14-4.48L74.14-4.48Q75.01-3.58 76.29-3.46L76.29-3.46L76.29-3.46Q75.65-1.28 73.44 0L73.44 0L73.44 0Q71.23 1.28 68.35 1.28ZM101.57-33.92L101.57-33.92L101.57-33.92Q103.87-33.92 105.66-33.41L105.66-33.41L105.66-33.41Q105.73-33.66 105.86-34.37L105.86-34.37L106.18-36.35L106.18-36.35Q106.43-37.63 106.82-39.74L106.82-39.74L107.84-44.80L120.58-46.08L113.47-8.96L113.47-8.96Q113.41-8.58 113.41-7.94L113.41-7.94L113.41-6.91L113.41-6.91Q113.41-5.50 114.11-4.45L114.11-4.45L114.11-4.45Q114.82-3.39 115.97-3.39L115.97-3.39L115.97-3.39Q114.69-0.38 110.78 0.90L110.78 0.90L110.78 0.90Q109.44 1.28 107.55 1.28L107.55 1.28L107.55 1.28Q105.66 1.28 103.94 0.29L103.94 0.29L103.94 0.29Q102.21-0.70 101.70-2.37L101.70-2.37L101.70-2.37Q100.67-0.70 98.62 0.29L98.62 0.29L98.62 0.29Q96.58 1.28 93.60 1.28L93.60 1.28L93.60 1.28Q90.62 1.28 88.16 0.51L88.16 0.51L88.16 0.51Q85.70-0.26 84.16-1.92L84.16-1.92L84.16-1.92Q81.34-5.18 81.34-12.61L81.34-12.61L81.34-12.61Q81.34-22.21 86.98-28.03L86.98-28.03L86.98-28.03Q92.61-33.92 101.57-33.92ZM101.12-30.08L101.12-30.08L101.12-30.08Q98.75-30.08 97.47-27.52L97.47-27.52L97.47-27.52Q96.19-24.96 94.88-18.62L94.88-18.62L94.88-18.62Q93.57-12.29 93.57-6.59L93.57-6.59L93.57-6.59Q93.57-2.69 95.87-2.69L95.87-2.69L95.87-2.69Q97.92-2.69 99.36-4.74L99.36-4.74L99.36-4.74Q100.80-6.78 101.38-10.18L101.38-10.18L104.83-28.93L104.83-28.93Q103.49-30.08 101.12-30.08ZM141.44-17.98L141.44-17.98L141.44-17.98Q143.74-22.08 143.74-26.24L143.74-26.24L143.74-26.24Q143.74-28.99 141.76-28.99L141.76-28.99L141.76-28.99Q140.22-28.99 138.62-26.37L138.62-26.37L138.62-26.37Q136.96-23.74 136.45-20.35L136.45-20.35L133.12 0L119.87 1.28L126.40-32.64L136.96-33.92L135.81-27.46L135.81-27.46Q138.94-33.92 145.98-33.92L145.98-33.92L145.98-33.92Q149.70-33.92 151.71-32L151.71-32L151.71-32Q153.73-30.08 153.73-26.14L153.73-26.14L153.73-26.14Q153.73-22.21 151.14-19.71L151.14-19.71L151.14-19.71Q148.54-17.22 144.13-17.22L144.13-17.22L144.13-17.22Q142.21-17.22 141.44-17.98ZM180.67-10.82L180.67-10.82L180.67-10.82Q182.27-9.73 182.27-7.33L182.27-7.33L182.27-7.33Q182.27-4.93 181.06-3.39L181.06-3.39L181.06-3.39Q179.84-1.86 177.86-0.83L177.86-0.83L177.86-0.83Q173.76 1.28 169.34 1.28L169.34 1.28L169.34 1.28Q164.93 1.28 162.34 0.32L162.34 0.32L162.34 0.32Q159.74-0.64 158.02-2.43L158.02-2.43L158.02-2.43Q154.62-5.82 154.62-12.03L154.62-12.03L154.62-12.03Q154.62-21.70 159.87-27.58L159.87-27.58L159.87-27.58Q165.50-33.92 175.30-33.92L175.30-33.92L175.30-33.92Q181.38-33.92 184.38-31.36L184.38-31.36L184.38-31.36Q186.62-29.44 186.62-26.30L186.62-26.30L186.62-26.30Q186.62-15.04 167.17-15.04L167.17-15.04L167.17-15.04Q166.91-13.38 166.91-11.97L166.91-11.97L166.91-11.97Q166.91-9.02 168.22-7.90L168.22-7.90L168.22-7.90Q169.54-6.78 171.97-6.78L171.97-6.78L171.97-6.78Q174.40-6.78 176.99-7.90L176.99-7.90L176.99-7.90Q179.58-9.02 180.67-10.82ZM167.62-17.79L167.62-17.79L167.62-17.79Q172.16-17.79 174.78-20.61L174.78-20.61L174.78-20.61Q177.41-23.30 177.41-27.58L177.41-27.58L177.41-27.58Q177.41-29.06 176.86-29.86L176.86-29.86L176.86-29.86Q176.32-30.66 175.23-30.66L175.23-30.66L175.23-30.66Q174.14-30.66 173.22-30.24L173.22-30.24L173.22-30.24Q172.29-29.82 171.33-28.42L171.33-28.42L171.33-28.42Q168.96-25.22 167.62-17.79ZM191.58-1.92L191.58-1.92L191.58-1.92Q190.08-3.58 189.41-6.21L189.41-6.21L189.41-6.21Q188.74-8.83 188.74-13.12L188.74-13.12L188.74-13.12Q188.74-17.41 190.21-21.31L190.21-21.31L190.21-21.31Q191.68-25.22 194.37-28.03L194.37-28.03L194.37-28.03Q199.87-33.92 208.96-33.92L208.96-33.92L208.96-33.92Q212.22-33.92 214.59-32.83L214.59-32.83L225.54-33.92L220.80-8.96L220.80-8.96Q220.61-8.19 220.61-6.78L220.61-6.78L220.61-6.78Q220.61-5.38 221.47-4.48L221.47-4.48L221.47-4.48Q222.34-3.58 223.62-3.46L223.62-3.46L223.62-3.46Q222.98-1.28 220.64 0L220.64 0L220.64 0Q218.30 1.28 215.68 1.28L215.68 1.28L215.68 1.28Q213.06 1.28 211.30 0.29L211.30 0.29L211.30 0.29Q209.54-0.70 209.02-2.37L209.02-2.37L209.02-2.37Q208-0.77 205.82 0.26L205.82 0.26L205.82 0.26Q203.65 1.28 200.74 1.28L200.74 1.28L200.74 1.28Q197.82 1.28 195.46 0.51L195.46 0.51L195.46 0.51Q193.09-0.26 191.58-1.92ZM205.09-27.90L205.09-27.90L205.09-27.90Q204.35-26.75 203.71-24.80L203.71-24.80L203.71-24.80Q203.07-22.85 202.02-17.63L202.02-17.63L202.02-17.63Q200.96-12.42 200.96-8.70L200.96-8.70L200.96-8.70Q200.96-4.99 201.54-3.90L201.54-3.90L201.54-3.90Q202.11-2.82 203.14-2.82L203.14-2.82L203.14-2.82Q205.18-2.82 206.69-4.77L206.69-4.77L206.69-4.77Q208.19-6.72 208.77-10.18L208.77-10.18L212.16-28.93L212.16-28.93Q210.82-30.08 209.25-30.08L209.25-30.08L209.25-30.08Q207.68-30.08 206.75-29.57L206.75-29.57L206.75-29.57Q205.82-29.06 205.09-27.90ZM241.34-3.07L241.34-3.07L249.28-44.80L262.27-46.08L260.29-36.29L260.29-36.29Q259.58-33.28 258.69-31.17L258.69-31.17L258.69-31.17Q260.10-32.96 263.17-33.66L263.17-33.66L263.17-33.66Q264.06-33.92 265.15-33.92L265.15-33.92L265.15-33.92Q271.10-33.92 274.37-30.30L274.37-30.30L274.37-30.30Q277.63-26.69 277.63-19.71L277.63-19.71L277.63-19.71Q277.63-10.62 272.45-4.93L272.45-4.93L272.45-4.93Q266.88 1.28 256.77 1.28L256.77 1.28L256.77 1.28Q249.79 1.28 244.54-1.02L244.54-1.02L244.54-1.02Q242.69-1.86 241.34-3.07ZM257.60-22.40L254.21-3.65L254.21-3.65Q255.55-2.50 257.22-2.50L257.22-2.50L257.22-2.50Q258.88-2.50 259.84-3.14L259.84-3.14L259.84-3.14Q260.80-3.78 261.50-5.06L261.50-5.06L261.50-5.06Q263.42-8.51 264.96-19.07L264.96-19.07L264.96-19.07Q265.41-22.08 265.41-25.09L265.41-25.09L265.41-25.09Q265.41-28.10 264.74-29.06L264.74-29.06L264.74-29.06Q264.06-30.02 262.78-30.02L262.78-30.02L262.78-30.02Q258.88-30.02 257.60-22.40L257.60-22.40ZM307.39-10.82L307.39-10.82L307.39-10.82Q308.99-9.73 308.99-7.33L308.99-7.33L308.99-7.33Q308.99-4.93 307.78-3.39L307.78-3.39L307.78-3.39Q306.56-1.86 304.58-0.83L304.58-0.83L304.58-0.83Q300.48 1.28 296.06 1.28L296.06 1.28L296.06 1.28Q291.65 1.28 289.06 0.32L289.06 0.32L289.06 0.32Q286.46-0.64 284.74-2.43L284.74-2.43L284.74-2.43Q281.34-5.82 281.34-12.03L281.34-12.03L281.34-12.03Q281.34-21.70 286.59-27.58L286.59-27.58L286.59-27.58Q292.22-33.92 302.02-33.92L302.02-33.92L302.02-33.92Q308.10-33.92 311.10-31.36L311.10-31.36L311.10-31.36Q313.34-29.44 313.34-26.30L313.34-26.30L313.34-26.30Q313.34-15.04 293.89-15.04L293.89-15.04L293.89-15.04Q293.63-13.38 293.63-11.97L293.63-11.97L293.63-11.97Q293.63-9.02 294.94-7.90L294.94-7.90L294.94-7.90Q296.26-6.78 298.69-6.78L298.69-6.78L298.69-6.78Q301.12-6.78 303.71-7.90L303.71-7.90L303.71-7.90Q306.30-9.02 307.39-10.82ZM294.34-17.79L294.34-17.79L294.34-17.79Q298.88-17.79 301.50-20.61L301.50-20.61L301.50-20.61Q304.13-23.30 304.13-27.58L304.13-27.58L304.13-27.58Q304.13-29.06 303.58-29.86L303.58-29.86L303.58-29.86Q303.04-30.66 301.95-30.66L301.95-30.66L301.95-30.66Q300.86-30.66 299.94-30.24L299.94-30.24L299.94-30.24Q299.01-29.82 298.05-28.42L298.05-28.42L298.05-28.42Q295.68-25.22 294.34-17.79ZM335.68-33.92L335.68-33.92L335.68-33.92Q337.98-33.92 339.78-33.41L339.78-33.41L339.78-33.41Q339.84-33.66 339.97-34.37L339.97-34.37L340.29-36.35L340.29-36.35Q340.54-37.63 340.93-39.74L340.93-39.74L341.95-44.80L354.69-46.08L347.58-8.96L347.58-8.96Q347.52-8.58 347.52-7.94L347.52-7.94L347.52-6.91L347.52-6.91Q347.52-5.50 348.22-4.45L348.22-4.45L348.22-4.45Q348.93-3.39 350.08-3.39L350.08-3.39L350.08-3.39Q348.80-0.38 344.90 0.90L344.90 0.90L344.90 0.90Q343.55 1.28 341.66 1.28L341.66 1.28L341.66 1.28Q339.78 1.28 338.05 0.29L338.05 0.29L338.05 0.29Q336.32-0.70 335.81-2.37L335.81-2.37L335.81-2.37Q334.78-0.70 332.74 0.29L332.74 0.29L332.74 0.29Q330.69 1.28 327.71 1.28L327.71 1.28L327.71 1.28Q324.74 1.28 322.27 0.51L322.27 0.51L322.27 0.51Q319.81-0.26 318.27-1.92L318.27-1.92L318.27-1.92Q315.46-5.18 315.46-12.61L315.46-12.61L315.46-12.61Q315.46-22.21 321.09-28.03L321.09-28.03L321.09-28.03Q326.72-33.92 335.68-33.92ZM335.23-30.08L335.23-30.08L335.23-30.08Q332.86-30.08 331.58-27.52L331.58-27.52L331.58-27.52Q330.30-24.96 328.99-18.62L328.99-18.62L328.99-18.62Q327.68-12.29 327.68-6.59L327.68-6.59L327.68-6.59Q327.68-2.69 329.98-2.69L329.98-2.69L329.98-2.69Q332.03-2.69 333.47-4.74L333.47-4.74L333.47-4.74Q334.91-6.78 335.49-10.18L335.49-10.18L338.94-28.93L338.94-28.93Q337.60-30.08 335.23-30.08ZM369.47 1.28L369.47 1.28L369.47 1.28Q355.39 1.28 355.39-11.97L355.39-11.97L355.39-11.97Q355.39-21.38 360.58-27.46L360.58-27.46L360.58-27.46Q366.08-33.92 375.62-33.92L375.62-33.92L375.62-33.92Q382.53-33.92 386.05-30.72L386.05-30.72L386.05-30.72Q389.57-27.52 389.57-20.80L389.57-20.80L389.57-20.80Q389.57-10.56 384.06-4.61L384.06-4.61L384.06-4.61Q378.69 1.28 369.47 1.28ZM371.14-26.56L371.14-26.56L371.14-26.56Q370.37-24.83 369.76-22.24L369.76-22.24L369.76-22.24Q369.15-19.65 368.38-15.55L368.38-15.55L368.38-15.55Q367.62-11.46 367.62-6.40L367.62-6.40L367.62-6.40Q367.62-4.74 368.16-3.65L368.16-3.65L368.16-3.65Q368.70-2.56 370.18-2.56L370.18-2.56L370.18-2.56Q371.65-2.56 372.58-3.26L372.58-3.26L372.58-3.26Q373.50-3.97 374.21-5.63L374.21-5.63L374.21-5.63Q375.49-8.58 376.51-14.05L376.51-14.05L376.51-14.05Q377.54-19.52 377.63-21.89L377.63-21.89L377.63-21.89Q377.73-24.26 377.73-26.02L377.73-26.02L377.73-26.02Q377.73-27.78 377.22-28.93L377.22-28.93L377.22-28.93Q376.70-30.08 375.26-30.08L375.26-30.08L375.26-30.08Q373.82-30.08 372.86-29.18L372.86-29.18L372.86-29.18Q371.90-28.29 371.14-26.56ZM413.70-7.23L413.70-7.23L413.70-7.23Q410.37-3.78 404.29-3.78L404.29-3.78L404.29-3.78Q396.67-3.78 395.07-9.34L395.07-9.34L395.07-9.34Q394.56-11.01 394.56-12.86L394.56-12.86L394.56-12.86Q394.56-14.72 394.94-16.64L394.94-16.64L397.95-32.64L410.94-33.92L407.42-15.30L407.42-15.30Q407.30-14.46 407.10-13.57L407.10-13.57L407.10-13.57Q406.91-12.67 406.91-11.74L406.91-11.74L406.91-11.74Q406.91-10.82 407.23-10.21L407.23-10.21L407.23-10.21Q407.55-9.60 408-9.22L408-9.22L408-9.22Q408.77-8.70 410.14-8.70L410.14-8.70L410.14-8.70Q411.52-8.70 412.70-10.37L412.70-10.37L412.70-10.37Q413.89-12.03 414.46-14.91L414.46-14.91L417.98-32.64L430.59-33.92L425.79-8.77L425.79-8.77Q423.42 3.52 418.56 8.38L418.56 8.38L418.56 8.38Q416.06 10.88 412.83 11.87L412.83 11.87L412.83 11.87Q409.60 12.86 405.44 12.86L405.44 12.86L405.44 12.86Q398.72 12.86 394.88 10.75L394.88 10.75L394.88 10.75Q391.04 8.64 391.04 5.12L391.04 5.12L391.04 5.12Q391.04 2.50 393.02 0.99L393.02 0.99L393.02 0.99Q395.01-0.51 398.08-0.51L398.08-0.51L398.08-0.51Q400.77-0.51 402.82 0.64L402.82 0.64L402.82 0.64Q404.03 1.34 404.61 2.24L404.61 2.24L404.61 2.24Q403.14 3.52 403.14 5.63L403.14 5.63L403.14 5.63Q403.14 8.45 405.70 8.45L405.70 8.45L405.70 8.45Q409.92 8.45 412.35-1.28L412.35-1.28L412.35-1.28Q413.06-4.16 413.70-7.23ZM435.68-1.92L435.68-1.92L435.68-1.92Q434.18-3.58 433.50-6.21L433.50-6.21L433.50-6.21Q432.83-8.83 432.83-13.12L432.83-13.12L432.83-13.12Q432.83-17.41 434.30-21.31L434.30-21.31L434.30-21.31Q435.78-25.22 438.46-28.03L438.46-28.03L438.46-28.03Q443.97-33.92 453.06-33.92L453.06-33.92L453.06-33.92Q456.32-33.92 458.69-32.83L458.69-32.83L469.63-33.92L464.90-8.96L464.90-8.96Q464.70-8.19 464.70-6.78L464.70-6.78L464.70-6.78Q464.70-5.38 465.57-4.48L465.57-4.48L465.57-4.48Q466.43-3.58 467.71-3.46L467.71-3.46L467.71-3.46Q467.07-1.28 464.74 0L464.74 0L464.74 0Q462.40 1.28 459.78 1.28L459.78 1.28L459.78 1.28Q457.15 1.28 455.39 0.29L455.39 0.29L455.39 0.29Q453.63-0.70 453.12-2.37L453.12-2.37L453.12-2.37Q452.10-0.77 449.92 0.26L449.92 0.26L449.92 0.26Q447.74 1.28 444.83 1.28L444.83 1.28L444.83 1.28Q441.92 1.28 439.55 0.51L439.55 0.51L439.55 0.51Q437.18-0.26 435.68-1.92ZM449.18-27.90L449.18-27.90L449.18-27.90Q448.45-26.75 447.81-24.80L447.81-24.80L447.81-24.80Q447.17-22.85 446.11-17.63L446.11-17.63L446.11-17.63Q445.06-12.42 445.06-8.70L445.06-8.70L445.06-8.70Q445.06-4.99 445.63-3.90L445.63-3.90L445.63-3.90Q446.21-2.82 447.23-2.82L447.23-2.82L447.23-2.82Q449.28-2.82 450.78-4.77L450.78-4.77L450.78-4.77Q452.29-6.72 452.86-10.18L452.86-10.18L456.26-28.93L456.26-28.93Q454.91-30.08 453.34-30.08L453.34-30.08L453.34-30.08Q451.78-30.08 450.85-29.57L450.85-29.57L450.85-29.57Q449.92-29.06 449.18-27.90Z"></path></g></g><style>text {
  font-size: 64px;
  font-family: Arial Black;
  dominant-baseline: central;
  text-anchor: middle;
}</style></svg>